<svg width="100%" height="100%" id="svg" viewBox="0 0 1440 690" xmlns="http://www.w3.org/2000/svg" class="transition duration-300 ease-in-out delay-150"><path d="M 0,700 C 0,700 0,233 0,233 C 58.41869527685289,247.0162288814897 116.83739055370577,261.0324577629794 177,265 C 237.16260944629423,268.9675422370206 299.06913306202983,262.88639782957205 349,230 C 398.93086693797017,197.11360217042792 436.8860771981749,137.42195091873228 489,146 C 541.1139228018251,154.57804908126772 607.3865581452707,231.42579849549884 664,271 C 720.6134418547293,310.57420150450116 767.5676902207425,312.8748550992724 816,302 C 864.4323097792575,291.1251449007276 914.3426809717598,267.0747811074115 968,231 C 1021.6573190282402,194.92521889258848 1079.0615858922183,146.8260204710815 1124,172 C 1168.9384141077817,197.1739795289185 1201.410975459366,295.62113700826245 1252,318 C 1302.589024540634,340.37886299173755 1371.294512270317,286.6894314958688 1440,233 C 1440,233 1440,700 1440,700 Z" stroke="none" stroke-width="0" fill="#32a041" fill-opacity="0.53" class="transition-all duration-300 ease-in-out delay-150 path-0"></path><path d="M 0,700 C 0,700 0,466 0,466 C 61.58426439758294,442.3714884696017 123.16852879516588,418.74297693920334 169,409 C 214.83147120483412,399.25702306079666 244.91014921691942,403.3995807127883 304,431 C 363.0898507830806,458.6004192872117 451.1908743371563,509.6587002096436 507,510 C 562.8091256628437,510.3412997903564 586.3263534344557,459.9656184486373 634,442 C 681.6736465655443,424.0343815513627 753.5037119250215,438.47882599580714 813,425 C 872.4962880749785,411.52117400419286 919.658798865458,370.1190775681342 968,389 C 1016.341201134542,407.8809224318658 1065.8610926131462,487.0448637316563 1120,524 C 1174.1389073868538,560.9551362683437 1232.8968306819581,555.7014675052411 1287,539 C 1341.1031693180419,522.2985324947589 1390.551584659021,494.14926624737944 1440,466 C 1440,466 1440,700 1440,700 Z" stroke="none" stroke-width="0" fill="#32a041" fill-opacity="1" class="transition-all duration-300 ease-in-out delay-150 path-1"></path></svg>